# xmcd
#
# Track frame offsets:
# 150
# 16817
# 30549
# 50217
# 66119
# 85750
# 102117
# 115037
# 130083
# 148871
# 162856
# 177421
# 194852
#
# Disc length: 2794 seconds
#
#
# Revision: 0
# Processed by: cddbd v1.5.2PL0 Copyright (c) Steve Scherf et al.
# Submitted via: FreeRIP 2.93 
#
DISCID=b30ae80d
DTITLE=Ernest Ray Everett - Sky High
DYEAR=2010
DGENRE=Country
TTITLE0=Sky High
TTITLE1=Little Thing
TTITLE2=Angel Holding On
TTITLE3=American Hick
TTITLE4=Sunshine Dreams
TTITLE5=Love To You From Hell
TTITLE6=I Konw Where I Stand
TTITLE7=Make A Change
TTITLE8=Where Angels Always Go
TTITLE9=Rolling Strong
TTITLE10=Yes We Can
TTITLE11=Simply Walk Away
TTITLE12=I'm Blessed
EXTD=
EXTT0=
EXTT1=
EXTT2=
EXTT3=
EXTT4=
EXTT5=
EXTT6=
EXTT7=
EXTT8=
EXTT9=
EXTT10=
EXTT11=
EXTT12=
PLAYORDER=
